<svg
  xmlns="http://www.w3.org/2000/svg"
  width="12"
  height="12"
  fill="currentColor"
  viewBox="0 0 12 12"
>
  <path
    d="M11.4 0a.6.6 0 0 0-.6.6v1.8H8.4v-.6a.6.6 0 1 0-1.2 0v.6H6v-.6a.6.6 0 1 0-1.2 0v.6H3.6v-.6a.6.6 0 1 0-1.2 0v.6H1.2V.6A.6.6 0 1 0 0 .6v9.6A1.8 1.8 0 0 0 1.8 12h8.4a1.8 1.8 0 0 0 1.8-1.8V.6a.6.6 0 0 0-.6-.6Zm-.6 10.2a.6.6 0 0 1-.6.6H1.8a.6.6 0 0 1-.6-.6V8.4h1.2V9a.6.6 0 1 0 1.2 0v-.6h1.2V9A.6.6 0 1 0 6 9v-.6h2.4V9a.6.6 0 1 0 1.2 0v-.6h1.2v1.8Zm0-3H9.6v-.6a.6.6 0 1 0-1.2 0v.6H6v-.6a.6.6 0 1 0-1.2 0v.6H3.6v-.6a.6.6 0 1 0-1.2 0v.6H1.2V3.6h1.2v.6a.6.6 0 1 0 1.2 0v-.6h1.2v.6a.6.6 0 1 0 1.2 0v-.6h1.2v.6a.6.6 0 0 0 1.2 0v-.6h2.4v3.6Z"/>
</svg>
