<svg width="16" height="16" viewBox="0 0 16 16" fill="none" xmlns="http://www.w3.org/2000/svg">
<path d="M11.9998 1.33325H3.99984C3.26346 1.33325 2.6665 1.93021 2.6665 2.66659V13.3333C2.6665 14.0697 3.26346 14.6666 3.99984 14.6666H11.9998C12.7362 14.6666 13.3332 14.0697 13.3332 13.3333V2.66659C13.3332 1.93021 12.7362 1.33325 11.9998 1.33325Z" fill="#F1ADDC" stroke="#F1ADDC" stroke-width="1.33333" stroke-linecap="round" stroke-linejoin="round"/>
<rect x="5.16508" y="3.835" width="1.66" height="1.66" rx="0.265" fill="#D7239E" stroke="#D7239E" stroke-width="0.33"/>
<rect x="9.16508" y="3.835" width="1.66" height="1.66" rx="0.265" fill="#D7239E" stroke="#D7239E" stroke-width="0.33"/>
<rect x="5.16508" y="7.16508" width="1.66" height="1.66" rx="0.265" fill="#D7239E" stroke="#D7239E" stroke-width="0.33"/>
<rect x="5.16508" y="10.5049" width="1.66" height="1.66" rx="0.265" fill="#D7239E" stroke="#D7239E" stroke-width="0.33"/>
<rect x="9.16508" y="10.5049" width="1.66" height="3.66" rx="0.265" fill="#D7239E" stroke="#D7239E" stroke-width="0.33"/>
<rect x="9.16508" y="7.16508" width="1.66" height="1.66" rx="0.265" fill="#D7239E" stroke="#D7239E" stroke-width="0.33"/>
</svg>
