<svg width="16" height="16" viewBox="0 0 16 16" fill="none" xmlns="http://www.w3.org/2000/svg">
<path d="M7.38058 0.872607C7.76566 0.658675 8.23389 0.658675 8.61897 0.872608L14.0979 3.91643C14.2865 4.02121 14.2865 4.29244 14.0979 4.39722L8.13333 7.71084C8.05027 7.75698 7.94928 7.75698 7.86623 7.71084L1.9017 4.39722C1.7131 4.29244 1.7131 4.02121 1.9017 3.91643L7.38058 0.872607Z" fill="#CFE57E"/>
<path d="M1.25 5.17683C1.25 5.06245 1.37287 4.99016 1.47285 5.0457L7.47285 8.37904C7.52047 8.40549 7.55 8.45568 7.55 8.51016V15.1374C7.55 15.2518 7.42713 15.3241 7.32715 15.2685L1.84151 12.221C1.47643 12.0181 1.25 11.6333 1.25 11.2157V5.17683Z" fill="#ACCF29"/>
<path d="M14.5273 5.04619C14.6273 4.99065 14.7502 5.06294 14.7502 5.17732V11.2162C14.7502 11.6338 14.5238 12.0186 14.1587 12.2214L8.67304 15.269C8.57306 15.3246 8.4502 15.2523 8.4502 15.1379C8.4502 15.1379 8.4502 8.56512 8.4502 8.51065C8.4502 8.45617 8.47973 8.40598 8.52735 8.37952L14.5273 5.04619Z" fill="#ACCF29"/>
</svg>
