<svg width="26" height="26" viewBox="0 0 26 26" fill="none" xmlns="http://www.w3.org/2000/svg">
<g filter="url(#filter0_d_1900_28807)">
<path d="M7.71331 21.71C7.61826 21.801 7.50617 21.8724 7.38349 21.92C7.14015 22.02 6.86722 22.02 6.62389 21.92C6.5012 21.8724 6.38912 21.801 6.29406 21.71L3.29564 18.71C3.20196 18.617 3.12761 18.5064 3.07687 18.3846C3.02612 18.2627 3 18.132 3 18C3 17.868 3.02612 17.7373 3.07687 17.6154C3.12761 17.4936 3.20196 17.383 3.29564 17.29C3.38856 17.1963 3.4991 17.1219 3.62089 17.0711C3.74269 17.0203 3.87333 16.9942 4.00527 16.9942L5.00421 16.9942L5.00422 13C5.00422 12.2044 5.32012 11.4413 5.88243 10.8787C6.44474 10.3161 7.2074 10 8.00263 10L13.0005 10C13.2656 10 13.5198 10.1054 13.7073 10.2929C13.8947 10.4804 14 11.7348 14 12C14 12.2652 13.8947 13.5196 13.7073 13.7071C13.5198 13.8946 13.2656 14 13.0005 14L10.0026 14C9.45043 14 9.00287 14.4478 9.00316 15L9.00316 16.9959L10.0021 16.9959C10.2683 16.9959 10.5235 17.1017 10.7117 17.29C10.8999 17.4783 11.0057 17.7337 11.0057 18C11.0057 18.2663 10.8999 18.5217 10.7117 18.71L7.71331 21.71Z" fill="#0000A3"/>
<path d="M18.2867 21.71C18.3817 21.801 18.4938 21.8724 18.6165 21.92C18.8598 22.02 19.1328 22.02 19.3761 21.92C19.4988 21.8724 19.6109 21.801 19.7059 21.71L22.7044 18.71C22.798 18.617 22.8724 18.5064 22.9231 18.3846C22.9739 18.2627 23 18.132 23 18C23 17.868 22.9739 17.7373 22.9231 17.6154C22.8724 17.4936 22.798 17.383 22.7044 17.29C22.6114 17.1963 22.5009 17.1219 22.3791 17.0711C22.2573 17.0203 22.1267 16.9942 21.9947 16.9942L20.9958 16.9942L20.9958 13C20.9958 12.2044 20.6799 11.4413 20.1176 10.8787C19.5553 10.3161 18.7926 10 17.9974 10L12.9995 10C12.7344 10 12.4802 10.1054 12.2927 10.2929C12.1053 10.4804 12 11.7348 12 12C12 12.2652 12.1053 13.5196 12.2927 13.7071C12.4802 13.8946 12.7344 14 12.9995 14L16.9974 14L16.9968 15L16.9968 16.9959L15.9979 16.9959C15.7317 16.9959 15.4765 17.1017 15.2883 17.29C15.1001 17.4783 14.9943 17.7337 14.9943 18C14.9943 18.2663 15.1001 18.5217 15.2883 18.71L18.2867 21.71Z" fill="#9999E5"/>
<path d="M11 4C11 2.89543 11.8954 2 13 2C14.1046 2 15 2.89543 15 4V14H13C11.8954 14 11 13.1046 11 12V4Z" fill="#9999E5"/>
</g>
<defs>
<filter id="filter0_d_1900_28807" x="-1.5" y="-1.25" width="29" height="29" filterUnits="userSpaceOnUse" color-interpolation-filters="sRGB">
<feFlood flood-opacity="0" result="BackgroundImageFix"/>
<feColorMatrix in="SourceAlpha" type="matrix" values="0 0 0 0 0 0 0 0 0 0 0 0 0 0 0 0 0 0 127 0" result="hardAlpha"/>
<feOffset dy="1.25"/>
<feGaussianBlur stdDeviation="1.25"/>
<feColorMatrix type="matrix" values="0 0 0 0 0 0 0 0 0 0 0 0 0 0 0 0 0 0 0.1 0"/>
<feBlend mode="normal" in2="BackgroundImageFix" result="effect1_dropShadow_1900_28807"/>
<feBlend mode="normal" in="SourceGraphic" in2="effect1_dropShadow_1900_28807" result="shape"/>
</filter>
</defs>
</svg>
