<svg width="26" height="30" viewBox="0 0 26 30" fill="none" xmlns="http://www.w3.org/2000/svg">
<rect x="3.18457" y="2.49023" width="20.7857" height="25.4048" fill="#0075E0"/>
<path fill-rule="evenodd" clip-rule="evenodd" d="M0.875 4.22233C0.875 1.99018 2.68452 0.180664 4.91667 0.180664H21.0833C23.3155 0.180664 25.125 1.99019 25.125 4.22233V25.7779C25.125 28.0101 23.3155 29.8196 21.0833 29.8196H4.91667C2.68453 29.8196 0.875 28.0101 0.875 25.7779V4.22233ZM4.91667 2.87511C4.17262 2.87511 3.56944 3.47828 3.56944 4.22233V25.7779C3.56944 26.522 4.1726 27.1251 4.91667 27.1251H21.0833C21.8274 27.1251 22.4306 26.522 22.4306 25.7779V4.22233C22.4306 3.47827 21.8274 2.87511 21.0833 2.87511H4.91667Z" fill="#0075E0"/>
<path d="M17.619 6.28136C17.619 5.99437 17.3088 5.76172 16.9261 5.76172H9.07372C8.69106 5.76172 8.38086 5.99437 8.38086 6.28136V12.1706C8.38086 12.4576 8.69106 12.6903 9.07372 12.6903H16.9261C17.3088 12.6903 17.619 12.4576 17.619 12.1706V6.28136Z" fill="#0075E0"/>
<path fill-rule="evenodd" clip-rule="evenodd" d="M9.07367 5.76172H16.9261C18.5842 5.76172 19.9284 6.43382 19.9284 7.26291V11.1891C19.9284 12.0182 18.5842 12.6903 16.9261 12.6903H9.07367C7.4155 12.6903 6.07129 12.0182 6.07129 11.1891V7.26291C6.07129 6.43382 7.4155 5.76172 9.07367 5.76172ZM16.9261 6.91648C17.3087 6.91648 17.6189 7.07158 17.6189 7.26291V11.1891C17.6189 11.3804 17.3087 11.5355 16.9261 11.5355H9.07367C8.69102 11.5355 8.38081 11.3804 8.38081 11.1891V7.26291C8.38081 7.07158 8.69102 6.91648 9.07367 6.91648H16.9261Z" fill="#0075E0"/>
<path d="M8.35492 22.4707C8.35492 22.4084 8.29359 22.3579 8.21793 22.3579H6.66532C6.58966 22.3579 6.52832 22.4084 6.52832 22.4707V23.7489C6.52832 23.8112 6.58966 23.8617 6.66532 23.8617H8.21793C8.29359 23.8617 8.35492 23.8112 8.35492 23.7489V22.4707Z" fill="#D1E9FF"/>
<path fill-rule="evenodd" clip-rule="evenodd" d="M6.66494 21.9824H8.21755C8.54541 21.9824 8.8112 22.2012 8.8112 22.4712V23.7494C8.8112 24.0193 8.54541 24.2381 8.21755 24.2381H6.66494C6.33707 24.2381 6.07129 24.0193 6.07129 23.7494V22.4712C6.07129 22.2012 6.33707 21.9824 6.66494 21.9824ZM8.21755 22.3584C8.29321 22.3584 8.35454 22.4089 8.35454 22.4712V23.7494C8.35454 23.8117 8.29321 23.8622 8.21755 23.8622H6.66494C6.58928 23.8622 6.52794 23.8117 6.52794 23.7494V22.4712C6.52794 22.4089 6.58928 22.3584 6.66494 22.3584H8.21755Z" fill="#D1E9FF"/>
<path d="M13.7363 22.4165C13.7363 22.3542 13.6749 22.3037 13.5993 22.3037H12.0467C11.971 22.3037 11.9097 22.3542 11.9097 22.4165V23.6947C11.9097 23.757 11.971 23.8075 12.0467 23.8075H13.5993C13.6749 23.8075 13.7363 23.757 13.7363 23.6947V22.4165Z" fill="#D1E9FF"/>
<path fill-rule="evenodd" clip-rule="evenodd" d="M12.0463 21.9282H13.5989C13.9268 21.9282 14.1925 22.147 14.1925 22.417V23.6952C14.1925 23.9651 13.9268 24.1839 13.5989 24.1839H12.0463C11.7184 24.1839 11.4526 23.9651 11.4526 23.6952V22.417C11.4526 22.147 11.7184 21.9282 12.0463 21.9282ZM13.5989 22.3042C13.6746 22.3042 13.7359 22.3547 13.7359 22.417V23.6952C13.7359 23.7575 13.6746 23.808 13.5989 23.808H12.0463C11.9706 23.808 11.9093 23.7575 11.9093 23.6952V22.417C11.9093 22.3547 11.9706 22.3042 12.0463 22.3042H13.5989Z" fill="#D1E9FF"/>
<path d="M19.3251 22.4165C19.3251 22.3542 19.2638 22.3037 19.1881 22.3037H17.6355C17.5599 22.3037 17.4985 22.3542 17.4985 22.4165V23.6947C17.4985 23.757 17.5599 23.8075 17.6355 23.8075H19.1881C19.2638 23.8075 19.3251 23.757 19.3251 23.6947V22.4165Z" fill="#D1E9FF"/>
<path fill-rule="evenodd" clip-rule="evenodd" d="M17.6352 21.9282H19.1878C19.5156 21.9282 19.7814 22.147 19.7814 22.417V23.6952C19.7814 23.9651 19.5156 24.1839 19.1878 24.1839H17.6352C17.3073 24.1839 17.0415 23.9651 17.0415 23.6952V22.417C17.0415 22.147 17.3073 21.9282 17.6352 21.9282ZM19.1878 22.3042C19.2634 22.3042 19.3248 22.3547 19.3248 22.417V23.6952C19.3248 23.7575 19.2634 23.808 19.1878 23.808H17.6352C17.5595 23.808 17.4982 23.7575 17.4982 23.6952V22.417C17.4982 22.3547 17.5595 22.3042 17.6352 22.3042H19.1878Z" fill="#D1E9FF"/>
<path d="M8.35492 17.8516C8.35492 17.7893 8.29359 17.7388 8.21793 17.7388H6.66532C6.58966 17.7388 6.52832 17.7893 6.52832 17.8516V19.1298C6.52832 19.1921 6.58966 19.2426 6.66532 19.2426H8.21793C8.29359 19.2426 8.35492 19.1921 8.35492 19.1298V17.8516Z" fill="#D1E9FF"/>
<path fill-rule="evenodd" clip-rule="evenodd" d="M6.66494 17.3633H8.21755C8.54541 17.3633 8.8112 17.5821 8.8112 17.852V19.1303C8.8112 19.4002 8.54541 19.619 8.21755 19.619H6.66494C6.33707 19.619 6.07129 19.4002 6.07129 19.1303V17.852C6.07129 17.5821 6.33707 17.3633 6.66494 17.3633ZM8.21755 17.7392C8.29321 17.7392 8.35454 17.7897 8.35454 17.852V19.1303C8.35454 19.1925 8.29321 19.243 8.21755 19.243H6.66494C6.58928 19.243 6.52794 19.1925 6.52794 19.1303V17.852C6.52794 17.7897 6.58928 17.7392 6.66494 17.7392H8.21755Z" fill="#D1E9FF"/>
<path d="M13.7363 17.7974C13.7363 17.7351 13.6749 17.6846 13.5993 17.6846H12.0467C11.971 17.6846 11.9097 17.7351 11.9097 17.7974V19.0756C11.9097 19.1379 11.971 19.1884 12.0467 19.1884H13.5993C13.6749 19.1884 13.7363 19.1379 13.7363 19.0756V17.7974Z" fill="#D1E9FF"/>
<path fill-rule="evenodd" clip-rule="evenodd" d="M12.0463 17.3091H13.5989C13.9268 17.3091 14.1925 17.5279 14.1925 17.7978V19.0761C14.1925 19.346 13.9268 19.5648 13.5989 19.5648H12.0463C11.7184 19.5648 11.4526 19.346 11.4526 19.0761V17.7978C11.4526 17.5279 11.7184 17.3091 12.0463 17.3091ZM13.5989 17.685C13.6746 17.685 13.7359 17.7355 13.7359 17.7978V19.0761C13.7359 19.1383 13.6746 19.1888 13.5989 19.1888H12.0463C11.9706 19.1888 11.9093 19.1383 11.9093 19.0761V17.7978C11.9093 17.7355 11.9706 17.685 12.0463 17.685H13.5989Z" fill="#D1E9FF"/>
<path d="M19.3251 17.7974C19.3251 17.7351 19.2638 17.6846 19.1881 17.6846H17.6355C17.5599 17.6846 17.4985 17.7351 17.4985 17.7974V19.0756C17.4985 19.1379 17.5599 19.1884 17.6355 19.1884H19.1881C19.2638 19.1884 19.3251 19.1379 19.3251 19.0756V17.7974Z" fill="#D1E9FF"/>
<path fill-rule="evenodd" clip-rule="evenodd" d="M17.6352 17.3091H19.1878C19.5156 17.3091 19.7814 17.5279 19.7814 17.7978V19.0761C19.7814 19.346 19.5156 19.5648 19.1878 19.5648H17.6352C17.3073 19.5648 17.0415 19.346 17.0415 19.0761V17.7978C17.0415 17.5279 17.3073 17.3091 17.6352 17.3091ZM19.1878 17.685C19.2634 17.685 19.3248 17.7355 19.3248 17.7978V19.0761C19.3248 19.1383 19.2634 19.1888 19.1878 19.1888H17.6352C17.5595 19.1888 17.4982 19.1383 17.4982 19.0761V17.7978C17.4982 17.7355 17.5595 17.685 17.6352 17.685H19.1878Z" fill="#D1E9FF"/>
<rect x="6.07129" y="5.76172" width="13.8571" height="6.92857" rx="0.92381" fill="#D1E9FF"/>
</svg>
