<svg width="16" height="16" viewBox="0 0 16 16" fill="none" xmlns="http://www.w3.org/2000/svg">
<path fill-rule="evenodd" clip-rule="evenodd" d="M0.666656 7.99996C0.666656 3.94987 3.9499 0.666626 7.99999 0.666626C12.0501 0.666626 15.3333 3.94987 15.3333 7.99996C15.3333 12.05 12.0501 15.3333 7.99999 15.3333C3.9499 15.3333 0.666656 12.05 0.666656 7.99996Z" fill="#F1ADDC"/>
<path fill-rule="evenodd" clip-rule="evenodd" d="M8.00001 3.33337C8.3682 3.33337 8.66668 3.63185 8.66668 4.00004V7.58802L10.9648 8.73709C11.2941 8.90175 11.4276 9.3022 11.263 9.63152C11.0983 9.96084 10.6979 10.0943 10.3685 9.92966L7.70187 8.59633C7.47601 8.4834 7.33334 8.25256 7.33334 8.00004V4.00004C7.33334 3.63185 7.63182 3.33337 8.00001 3.33337Z" fill="#D7239E"/>
</svg>
