<svg width="16" height="16" viewBox="0 0 16 16" fill="none" xmlns="http://www.w3.org/2000/svg">
<g clip-path="url(#clip0_2843_10814)">
<path d="M7.02895 2.24725C8.63703 3.90959 8.63703 6.60478 7.02895 8.26712C5.42087 9.92946 2.81365 9.92946 1.20557 8.26712C-0.402509 6.60478 -0.402509 3.90959 1.20557 2.24725C2.81365 0.584903 5.42087 0.584903 7.02895 2.24725Z" fill="#FAAEAD"/>
<path d="M1.20557 8.26712L7.02895 2.24725L12.8523 8.26712L7.02895 14.287L1.20557 8.26712Z" fill="#FAAEAD"/>
<path fill-rule="evenodd" clip-rule="evenodd" d="M8.97007 2.24725L8.95922 2.25851L7.99953 3.25057L7.99953 3.25056L3.14673 8.26712L2.17615 9.27044L7.52236 14.797C7.78589 15.0695 8.21316 15.0695 8.47669 14.797L8.97011 14.287L13.8229 9.27044L14.7935 8.26712L14.7935 8.2671C16.4015 6.60476 16.4015 3.90958 14.7934 2.24724C13.1854 0.584903 10.5781 0.584903 8.97007 2.24725Z" fill="#DD304C"/>
</g>
<defs>
<clipPath id="clip0_2843_10814">
<rect width="16" height="16" fill="white" transform="translate(-0.000488281 0.000488281)"/>
</clipPath>
</defs>
</svg>
