<svg width="16" height="16" viewBox="0 0 16 16" fill="none" xmlns="http://www.w3.org/2000/svg">
<path d="M13.4892 6.50448V14.1376C12.557 14.0292 11.6853 13.6201 11.0177 12.971C10.2324 12.2076 9.79395 11.1752 9.79395 10.1017V8.96523L13.4892 6.50448Z" fill="#1D65C4" stroke="#1D65C3"/>
<path d="M13.4891 1.34808C13.4891 1.34819 13.4891 1.3483 13.4891 1.34841L13.4891 5.30372L8.24576 8.81067C8.24541 8.8109 8.24507 8.81113 8.24472 8.81136C7.32431 9.4193 6.19104 9.64825 5.09469 9.44534C4.17168 9.27452 3.34198 8.81011 2.73056 8.13605L13.174 1.20452C13.1741 1.20447 13.1742 1.20442 13.1743 1.20437C13.2043 1.18458 13.2405 1.17234 13.2791 1.17024C13.3178 1.16814 13.3557 1.17642 13.3886 1.19327C13.4213 1.21008 13.4468 1.23425 13.4638 1.26162C13.4807 1.28875 13.489 1.31859 13.4891 1.34808Z" fill="#2684FF" stroke="#2684FF"/>
</svg>
