<svg xmlns="http://www.w3.org/2000/svg" xmlns:xlink="http://www.w3.org/1999/xlink" width="33px" height="34px" viewBox="0 0 33 34" version="1.1">
<path d="M 32.667969 1.867188 C 23.667969 15.847656 16.152344 23.753906 5.796875 28.886719 C 5.132812 25.921875 2.914062 14.015625 8.457031 7.867188 C 14.222656 1.457031 22.714844 4.035156 30.847656 1.261719 C 31.515625 1.023438 32.246094 1.261719 32.667969 1.867188 Z M 32.667969 1.867188" fill="#A1EBC1"/>
<path d="M 1.050781 31.058594 C 2.460938 30.445312 3.796875 29.660156 5.042969 28.71875 C 5.261719 28.597656 5.484375 28.476562 5.707031 28.308594 C 15.328125 21.535156 22.753906 14.570312 32.421875 1.574219 C 32.800781 1.914062 33.019531 2.417969 33 2.949219 C 32.777344 10.617188 31.800781 20.859375 26.457031 26.8125 C 21.601562 32.191406 12.203125 30.960938 8.058594 30.09375 C 6.195312 31.683594 4.132812 32.960938 1.914062 33.878906 C 1.742188 33.957031 1.554688 34 1.363281 33.996094 C 1.175781 33.996094 0.988281 33.953125 0.816406 33.867188 C 0.644531 33.785156 0.488281 33.664062 0.359375 33.511719 C 0.234375 33.359375 0.136719 33.179688 0.0742188 32.988281 C 0.0117188 32.792969 -0.0117188 32.585938 0.00390625 32.378906 C 0.0195312 32.175781 0.0742188 31.976562 0.164062 31.796875 C 0.253906 31.613281 0.375 31.453125 0.527344 31.328125 C 0.675781 31.199219 0.847656 31.109375 1.027344 31.058594 Z M 1.050781 31.058594" fill="#27BF69"/>
</svg>
