<svg xmlns="http://www.w3.org/2000/svg" width="18" height="18" viewBox="0 0 20 20">
    <g fill="none" fill-rule="evenodd" stroke-width="1.667" transform="translate(3.333 2.5)">
        <path fill="#FFF" stroke="#FFF" d="M13.333 3.148v9.608c0 1.14-2.963 2.059-6.666 2.059-3.704 0-6.667-.92-6.667-2.059h0V3.148h13.333z"/>
        <path fill="#2f3650" stroke="#2f3650" stroke-linecap="round" stroke-linejoin="round" d="M13.333 7.407c0 1.23-2.963 2.223-6.666 2.223C2.963 9.63 0 8.637 0 7.407V2.222c.018.732.183 1.18.495 1.344 1.755.923 4.417.878 6.172.878 1.558 0 4.422-.059 5.981-.788.443-.206.67-.684.685-1.434v5.185z"/>
        <ellipse cx="6.667" cy="2.222" fill="#FFF" stroke="#FFF" stroke-linecap="round" stroke-linejoin="round" rx="6.667" ry="2.222"/>
    </g>
</svg>
