<svg xmlns="http://www.w3.org/2000/svg" width="26" height="26" viewBox="0 0 26 26">
  <g fill="none" fill-rule="evenodd">
    <rect width="26" height="26" fill="#32325D" rx="13"/>
    <path fill="#FFF" fill-rule="nonzero" d="M7,9.625 C8.26706685,9.62661735 9.48721682,9.14575312 10.4125,8.280125 L11.9525,8.857625 C13.1839115,9.31988109 13.9996918,10.4971845 14,11.8125 L14,13.125 C14,13.6082492 13.6082492,14 13.125,14 L0.875,14 C0.391750844,14 0,13.6082492 0,13.125 L0,11.8125 C0,10.4965 0.816375,9.31875 2.0475,8.85675 L3.5875,8.27925 C4.51264813,9.14519693 5.73281365,9.62638015 7,9.625 L7,9.625 Z M6.8285,0 L7.1715,0 C8.02783883,0 8.84506595,0.358521101 9.42496379,0.988627983 C10.0048616,1.61873487 10.2944538,2.46285575 10.2235,3.31625 L10.08,5.040875 C9.94754994,6.64355949 8.60814818,7.87683571 7,7.87683571 C5.39185182,7.87683571 4.05245006,6.64355949 3.92,5.040875 L3.7765,3.317125 C3.70528779,2.46358625 3.99476371,1.61922909 4.57469074,0.988924222 C5.15461777,0.358619356 5.97199572,0 6.8285,0 Z" transform="translate(6 6)"/>
  </g>
</svg>
