<svg width="16" height="16" viewBox="0 0 16 16" fill="none" xmlns="http://www.w3.org/2000/svg">
<g clip-path="url(#clip0_2676_10676)">
<path d="M14.6662 10.0004H13.3329V8.00047C13.3329 7.82366 13.2627 7.6541 13.1377 7.52908C13.0126 7.40406 12.8431 7.33382 12.6663 7.33382H8.6664V6.00053H9.99969C10.1765 6.00053 10.3461 5.93029 10.4711 5.80527C10.5961 5.68025 10.6663 5.51069 10.6663 5.33388V1.334C10.6663 1.1572 10.5961 0.987635 10.4711 0.862615C10.3461 0.737594 10.1765 0.667358 9.99969 0.667358H5.99981C5.82301 0.667358 5.65344 0.737594 5.52842 0.862615C5.4034 0.987635 5.33317 1.1572 5.33317 1.334V5.33388C5.33317 5.51069 5.4034 5.68025 5.52842 5.80527C5.65344 5.93029 5.82301 6.00053 5.99981 6.00053H7.3331V7.33382H3.33323C3.15642 7.33382 2.98686 7.40406 2.86184 7.52908C2.73682 7.6541 2.66658 7.82366 2.66658 8.00047V10.0004H1.33329C1.15648 10.0004 0.986918 10.0706 0.861897 10.1957C0.736877 10.3207 0.666641 10.4902 0.666641 10.6671V14.6669C0.666641 14.8437 0.736877 15.0133 0.861897 15.1383C0.986918 15.2633 1.15648 15.3336 1.33329 15.3336H5.33317C5.50997 15.3336 5.67953 15.2633 5.80456 15.1383C5.92958 15.0133 5.99981 14.8437 5.99981 14.6669V10.6671C5.99981 10.4902 5.92958 10.3207 5.80456 10.1957C5.67953 10.0706 5.50997 10.0004 5.33317 10.0004H3.99987V8.66711H11.9996V10.0004H10.6663C10.4895 10.0004 10.32 10.0706 10.1949 10.1957C10.0699 10.3207 9.99969 10.4902 9.99969 10.6671V14.6669C9.99969 14.8437 10.0699 15.0133 10.1949 15.1383C10.32 15.2633 10.4895 15.3336 10.6663 15.3336H14.6662C14.843 15.3336 15.0126 15.2633 15.1376 15.1383C15.2626 15.0133 15.3329 14.8437 15.3329 14.6669V10.6671C15.3329 10.4902 15.2626 10.3207 15.1376 10.1957C15.0126 10.0706 14.843 10.0004 14.6662 10.0004ZM4.66652 11.3337V14.0003H1.99993V11.3337H4.66652ZM6.66646 4.66724V2.00065H9.33304V4.66724H6.66646ZM13.9996 14.0003H11.333V11.3337H13.9996V14.0003Z" fill="#8E6800"/>
<path d="M10.4711 5.80527C10.3461 5.93029 10.1765 6.00053 9.9997 6.00053H5.99982C5.82302 6.00053 5.65345 5.93029 5.52843 5.80527C5.40341 5.68025 5.33318 5.51069 5.33318 5.33388V1.334C5.33318 1.1572 5.40341 0.987635 5.52843 0.862615C5.65345 0.737594 5.82302 0.667358 5.99982 0.667358H9.9997C10.1765 0.667358 10.3461 0.737594 10.4711 0.862615C10.5961 0.987635 10.6663 1.1572 10.6663 1.334V5.33388C10.6663 5.51069 10.5961 5.68025 10.4711 5.80527Z" fill="#F3B300"/>
<path d="M15.1376 15.1384C15.0126 15.2634 14.843 15.3337 14.6662 15.3337H10.6663C10.4895 15.3337 10.32 15.2634 10.195 15.1384C10.0699 15.0134 9.99969 14.8438 9.99969 14.667V10.6671C9.99969 10.4903 10.0699 10.3208 10.195 10.1957C10.32 10.0707 10.4895 10.0005 10.6663 10.0005H14.6662C14.843 10.0005 15.0126 10.0707 15.1376 10.1957C15.2626 10.3208 15.3329 10.4903 15.3329 10.6671V14.667C15.3329 14.8438 15.2626 15.0134 15.1376 15.1384Z" fill="#F3B300"/>
<path d="M5.80456 15.1384C5.67953 15.2634 5.50997 15.3337 5.33317 15.3337H1.33329C1.15648 15.3337 0.986918 15.2634 0.861898 15.1384C0.736877 15.0134 0.666641 14.8438 0.666641 14.667V10.6671C0.666641 10.4903 0.736877 10.3208 0.861898 10.1957C0.986918 10.0707 1.15648 10.0005 1.33329 10.0005H5.33317C5.50997 10.0005 5.67953 10.0707 5.80456 10.1957C5.92958 10.3208 5.99981 10.4903 5.99981 10.6671V14.667C5.99981 14.8438 5.92958 15.0134 5.80456 15.1384Z" fill="#F3B300"/>
</g>
<defs>
<clipPath id="clip0_2676_10676">
<rect width="15.9995" height="15.9995" fill="white" transform="translate(0 0.000732422)"/>
</clipPath>
</defs>
</svg>
