<svg width="24" height="24" viewBox="0 0 24 24" fill="none" xmlns="http://www.w3.org/2000/svg">
  <path fill-rule="evenodd" clip-rule="evenodd" d="M2.99994 4.00098C2.99994 2.34412 4.34308 1.00098 5.99994 1.00098H17.9999C19.6568 1.00098 20.9999 2.34412 20.9999 4.00098V20.001C20.9999 21.6578 19.6568 23.001 17.9999 23.001H5.99994C4.34308 23.001 2.99994 21.6578 2.99994 20.001V4.00098ZM6.99933 5C6.99933 4.44772 7.44704 4 7.99933 4H9.99933C10.5516 4 10.9993 4.44772 10.9993 5V6C10.9993 6.55228 10.5516 7 9.99933 7H7.99933C7.44704 7 6.99933 6.55228 6.99933 6V5ZM7.99933 9C7.44704 9 6.99933 9.44772 6.99933 10V11C6.99933 11.5523 7.44704 12 7.99933 12H9.99933C10.5516 12 10.9993 11.5523 10.9993 11V10C10.9993 9.44772 10.5516 9 9.99933 9H7.99933ZM6.99933 14.999C6.99933 14.4467 7.44704 13.999 7.99933 13.999H9.99933C10.5516 13.999 10.9993 14.4467 10.9993 14.999V15.999C10.9993 16.5513 10.5516 16.999 9.99933 16.999H7.99933C7.44704 16.999 6.99933 16.5513 6.99933 15.999V14.999ZM13.9993 4C13.447 4 12.9993 4.44772 12.9993 5V6C12.9993 6.55228 13.447 7 13.9993 7H15.9993C16.5516 7 16.9993 6.55228 16.9993 6V5C16.9993 4.44772 16.5516 4 15.9993 4H13.9993ZM12.9993 10C12.9993 9.44772 13.447 9 13.9993 9H15.9993C16.5516 9 16.9993 9.44772 16.9993 10V11C16.9993 11.5523 16.5516 12 15.9993 12H13.9993C13.447 12 12.9993 11.5523 12.9993 11V10ZM13.9993 13.999C13.447 13.999 12.9993 14.3908 12.9993 14.874V20.124C12.9993 20.6073 13.447 20.999 13.9993 20.999H15.9993C16.5516 20.999 16.9993 20.6073 16.9993 20.124V14.874C16.9993 14.3908 16.5516 13.999 15.9993 13.999H13.9993Z" fill="black"/>
</svg>
