<svg width="16" height="16" viewBox="0 0 16 16" fill="none" xmlns="http://www.w3.org/2000/svg">
  <path fill-rule="evenodd" clip-rule="evenodd" d="M1.21384 12.0001L6.8605 2.57347C6.97935 2.37754 7.14669 2.21555 7.34637 2.10313C7.54606 1.9907 7.77135 1.93164 8.0005 1.93164C8.22966 1.93164 8.45495 1.9907 8.65463 2.10313C8.85432 2.21555 9.02166 2.37754 9.1405 2.57347L14.7872 12.0001C14.9036 12.2018 14.9652 12.4303 14.9658 12.6631C14.9665 12.896 14.9062 13.1249 14.7909 13.3272C14.6756 13.5294 14.5094 13.698 14.3087 13.816C14.108 13.9341 13.88 13.9976 13.6472 14.0001H2.35384C2.12104 13.9976 1.89296 13.9341 1.69231 13.816C1.49165 13.698 1.32541 13.5294 1.21012 13.3272C1.09483 13.1249 1.03451 12.896 1.03516 12.6631C1.03581 12.4303 1.09741 12.2018 1.21384 12.0001ZM8 5.25C8.41421 5.25 8.75 5.58579 8.75 6V8.66667C8.75 9.08088 8.41421 9.41667 8 9.41667C7.58579 9.41667 7.25 9.08088 7.25 8.66667V6C7.25 5.58579 7.58579 5.25 8 5.25ZM8 10.584C7.58579 10.584 7.25 10.9198 7.25 11.334C7.25 11.7482 7.58579 12.084 8 12.084H8.00667C8.42088 12.084 8.75667 11.7482 8.75667 11.334C8.75667 10.9198 8.42088 10.584 8.00667 10.584H8Z" fill="#525F7F"/>
</svg>
