<svg width="16" height="16" viewBox="0 0 16 16" fill="none" xmlns="http://www.w3.org/2000/svg">
<path fill-rule="evenodd" clip-rule="evenodd" d="M2 4C2 3.26362 2.59695 2.66666 3.33333 2.66666H12.6667C13.403 2.66666 14 3.26362 14 4V13.3333C14 14.0697 13.403 14.6667 12.6667 14.6667H3.33333C2.59695 14.6667 2 14.0697 2 13.3333V4Z" fill="white" stroke="#6B7280" stroke-width="1.33333" stroke-linecap="round" stroke-linejoin="round"/>
<path fill-rule="evenodd" clip-rule="evenodd" d="M2 4.33333C2 3.59695 2.59695 3 3.33333 3H12.6667C13.403 3 14 3.59695 14 4.33333V5.66667C14 6.40305 13.403 7 12.6667 7H3.33333C2.59695 7 2 6.40305 2 5.66667V4.33333Z" fill="#4B5563" stroke="#4B5563" stroke-width="1.33333" stroke-linecap="round" stroke-linejoin="round"/>
<path d="M11.5833 1.33333C11.5833 0.82707 11.1729 0.416664 10.6667 0.416664C10.1604 0.416664 9.75 0.82707 9.75 1.33333V4C9.75 4.50626 10.1604 4.91666 10.6667 4.91666C11.1729 4.91666 11.5833 4.50626 11.5833 4V1.33333Z" fill="#4B5563" stroke="#4B5563" stroke-width="0.5" stroke-linecap="round" stroke-linejoin="round"/>
<path d="M6.25001 1.33333C6.25001 0.82707 5.8396 0.416664 5.33334 0.416664C4.82708 0.416664 4.41667 0.82707 4.41667 1.33333V4C4.41667 4.50626 4.82708 4.91666 5.33334 4.91666C5.8396 4.91666 6.25001 4.50626 6.25001 4V1.33333Z" fill="#4B5563" stroke="#4B5563" stroke-width="0.5" stroke-linecap="round" stroke-linejoin="round"/>
</svg>
