<svg width="21" height="20" viewBox="0 0 21 20" fill="none" xmlns="http://www.w3.org/2000/svg">
<path d="M5.99963 14.0002C6.39746 14.0002 6.77899 13.8422 7.06029 13.5609C7.3416 13.2796 7.49963 12.8981 7.49963 12.5002C7.50452 12.4504 7.50452 12.4001 7.49963 12.3502L10.2896 9.56024H10.5196H10.7496L12.3596 11.1702C12.3596 11.1702 12.3596 11.2202 12.3596 11.2502C12.3596 11.6481 12.5177 12.0296 12.799 12.3109C13.0803 12.5922 13.4618 12.7502 13.8596 12.7502C14.2575 12.7502 14.639 12.5922 14.9203 12.3109C15.2016 12.0296 15.3596 11.6481 15.3596 11.2502V11.1702L18.9996 7.50024C19.2963 7.50024 19.5863 7.41227 19.833 7.24745C20.0797 7.08263 20.2719 6.84836 20.3855 6.57427C20.499 6.30018 20.5287 5.99858 20.4708 5.70761C20.4129 5.41664 20.2701 5.14936 20.0603 4.93958C19.8505 4.7298 19.5832 4.58694 19.2923 4.52907C19.0013 4.47119 18.6997 4.50089 18.4256 4.61442C18.1515 4.72796 17.9173 4.92022 17.7524 5.16689C17.5876 5.41356 17.4996 5.70357 17.4996 6.00024C17.4948 6.05013 17.4948 6.10036 17.4996 6.15024L13.8896 9.76024H13.7296L11.9996 8.00024C11.9996 7.60242 11.8416 7.22089 11.5603 6.93958C11.279 6.65828 10.8975 6.50024 10.4996 6.50024C10.1018 6.50024 9.72028 6.65828 9.43897 6.93958C9.15767 7.22089 8.99963 7.60242 8.99963 8.00024L5.99963 11.0002C5.60181 11.0002 5.22028 11.1583 4.93897 11.4396C4.65767 11.7209 4.49963 12.1024 4.49963 12.5002C4.49963 12.8981 4.65767 13.2796 4.93897 13.5609C5.22028 13.8422 5.60181 14.0002 5.99963 14.0002ZM19.4996 18.0002H2.49963V1.00024C2.49963 0.735028 2.39428 0.480674 2.20674 0.293137C2.0192 0.105601 1.76485 0.000244141 1.49963 0.000244141C1.23442 0.000244141 0.980063 0.105601 0.792527 0.293137C0.604991 0.480674 0.499634 0.735028 0.499634 1.00024V19.0002C0.499634 19.2655 0.604991 19.5198 0.792527 19.7074C0.980063 19.8949 1.23442 20.0002 1.49963 20.0002H19.4996C19.7649 20.0002 20.0192 19.8949 20.2067 19.7074C20.3943 19.5198 20.4996 19.2655 20.4996 19.0002C20.4996 18.735 20.3943 18.4807 20.2067 18.2931C20.0192 18.1056 19.7649 18.0002 19.4996 18.0002Z" fill="#4B5563"/>
</svg>
