<svg width="16" height="16" viewBox="0 0 16 16" fill="none" xmlns="http://www.w3.org/2000/svg">
<path fill-rule="evenodd" clip-rule="evenodd" d="M15.3335 8.00033C15.3335 12.0504 12.0502 15.3337 8.00014 15.3337C3.95005 15.3337 0.666809 12.0504 0.666809 8.00033C0.666809 3.95024 3.95005 0.666992 8.00014 0.666992C12.0502 0.666992 15.3335 3.95024 15.3335 8.00033ZM8.66633 3.99985C8.66633 3.63166 8.36785 3.33318 7.99966 3.33318C7.63147 3.33318 7.333 3.63166 7.333 3.99985V7.99985C7.333 8.25236 7.47567 8.4832 7.70152 8.59613L10.3682 9.92947C10.6975 10.0941 11.098 9.96064 11.2626 9.63132C11.4273 9.302 11.2938 8.90156 10.9645 8.7369L8.66633 7.58782V3.99985Z" fill="#525F7F"/>
</svg>
