<svg width="24" height="24" viewBox="0 0 24 24" fill="none" xmlns="http://www.w3.org/2000/svg">
<g clip-path="url(#clip0_327_2)">
<path fill-rule="evenodd" clip-rule="evenodd" d="M-0.000366211 19.0002C-0.000366211 16.2389 2.2382 14.0002 4.99963 14.0002H6.99963C7.55192 14.0002 7.99963 14.448 7.99963 15.0002C7.99963 15.5525 7.55192 16.0002 6.99963 16.0002H4.99963C3.34278 16.0002 1.99963 17.3434 1.99963 19.0002V21.0002C1.99963 21.5525 1.55192 22.0002 0.999634 22.0002C0.447349 22.0002 -0.000366211 21.5525 -0.000366211 21.0002V19.0002Z" fill="#4B5563"/>
<path fill-rule="evenodd" clip-rule="evenodd" d="M1.99963 7.00024C1.99963 4.23882 4.23821 2.00024 6.99963 2.00024C9.76106 2.00024 11.9996 4.23882 11.9996 7.00024C11.9996 9.76167 9.76106 12.0002 6.99963 12.0002C4.23821 12.0002 1.99963 9.76167 1.99963 7.00024ZM6.99963 4.00024C5.34278 4.00024 3.99963 5.34339 3.99963 7.00024C3.99963 8.6571 5.34278 10.0002 6.99963 10.0002C8.65649 10.0002 9.99963 8.6571 9.99963 7.00024C9.99963 5.34339 8.65649 4.00024 6.99963 4.00024Z" fill="#4B5563"/>
<path fill-rule="evenodd" clip-rule="evenodd" d="M10.9996 15.5002C10.9996 11.9104 13.9097 9.00024 17.4996 9.00024C21.0895 9.00024 23.9996 11.9104 23.9996 15.5002C23.9996 19.0901 21.0895 22.0002 17.4996 22.0002C13.9097 22.0002 10.9996 19.0901 10.9996 15.5002ZM17.4996 11.0002C15.0143 11.0002 12.9996 13.0149 12.9996 15.5002C12.9996 17.9856 15.0143 20.0002 17.4996 20.0002C19.9849 20.0002 21.9996 17.9856 21.9996 15.5002C21.9996 13.0149 19.9849 11.0002 17.4996 11.0002Z" fill="#4B5563"/>
<path fill-rule="evenodd" clip-rule="evenodd" d="M16.4996 10.0002C16.4996 9.44796 16.9473 9.00024 17.4996 9.00024C19.2236 9.00024 20.8768 9.68512 22.0958 10.904L22.0959 10.9041C23.3148 12.1231 23.9996 13.7763 23.9996 15.5002C23.9996 16.0525 23.5519 16.5002 22.9996 16.5002H17.4996C16.9473 16.5002 16.4996 16.0525 16.4996 15.5002V10.0002ZM18.4996 11.1128V14.5002H21.8871C21.7003 13.6805 21.2857 12.9224 20.6817 12.3183C20.6816 12.3183 20.6816 12.3182 20.6816 12.3182M18.4996 11.1128C19.3194 11.2996 20.0775 11.7142 20.6816 12.3182L18.4996 11.1128Z" fill="#4B5563"/>
</g>
<defs>
<clipPath id="clip0_327_2">
<rect width="24" height="24" fill="white" transform="translate(-0.000366211 0.000244141)"/>
</clipPath>
</defs>
</svg>
