<svg width="4" height="18" viewBox="0 0 4 18" fill="none" xmlns="http://www.w3.org/2000/svg">
<path fill-rule="evenodd" clip-rule="evenodd" d="M-0.000366211 9.00024C-0.000366211 7.89567 0.895064 7.00024 1.99963 7.00024C3.1042 7.00024 3.99963 7.89567 3.99963 9.00024C3.99963 10.1048 3.1042 11.0002 1.99963 11.0002C0.895064 11.0002 -0.000366211 10.1048 -0.000366211 9.00024Z" fill="#4B5563"/>
<path fill-rule="evenodd" clip-rule="evenodd" d="M-0.000366211 2.00024C-0.000366211 0.895675 0.895064 0.000244141 1.99963 0.000244141C3.1042 0.000244141 3.99963 0.895675 3.99963 2.00024C3.99963 3.10481 3.1042 4.00024 1.99963 4.00024C0.895064 4.00024 -0.000366211 3.10481 -0.000366211 2.00024Z" fill="#4B5563"/>
<path fill-rule="evenodd" clip-rule="evenodd" d="M-0.000366211 16.0002C-0.000366211 14.8957 0.895064 14.0002 1.99963 14.0002C3.1042 14.0002 3.99963 14.8957 3.99963 16.0002C3.99963 17.1048 3.1042 18.0002 1.99963 18.0002C0.895064 18.0002 -0.000366211 17.1048 -0.000366211 16.0002Z" fill="#4B5563"/>
</svg>
