<svg width="24" height="24" viewBox="0 0 24 24" fill="none" xmlns="http://www.w3.org/2000/svg">
<path d="M7.11111 10.7778C6.86938 10.7778 6.63307 10.8495 6.43208 10.9838C6.23109 11.1181 6.07443 11.3089 5.98193 11.5323C5.88942 11.7556 5.86521 12.0014 5.91237 12.2384C5.95953 12.4755 6.07594 12.6933 6.24687 12.8642C6.4178 13.0352 6.63558 13.1516 6.87267 13.1987C7.10976 13.2459 7.3555 13.2217 7.57884 13.1292C7.80217 13.0367 7.99305 12.88 8.12735 12.679C8.26165 12.478 8.33333 12.2417 8.33333 12C8.33333 11.6758 8.20456 11.365 7.97535 11.1358C7.74614 10.9065 7.43527 10.7778 7.11111 10.7778ZM7.11111 20.5556C6.86938 20.5556 6.63307 20.6272 6.43208 20.7615C6.23109 20.8958 6.07443 21.0867 5.98193 21.3101C5.88942 21.5334 5.86521 21.7791 5.91237 22.0162C5.95953 22.2533 6.07594 22.4711 6.24687 22.642C6.4178 22.813 6.63558 22.9294 6.87267 22.9765C7.10976 23.0237 7.3555 22.9995 7.57884 22.907C7.80217 22.8145 7.99305 22.6578 8.12735 22.4568C8.26165 22.2558 8.33333 22.0195 8.33333 21.7778C8.33333 21.4536 8.20456 21.1427 7.97535 20.9135C7.74614 20.6843 7.43527 20.5556 7.11111 20.5556ZM12 20.5556C11.7583 20.5556 11.522 20.6272 11.321 20.7615C11.12 20.8958 10.9633 21.0867 10.8708 21.3101C10.7783 21.5334 10.7541 21.7791 10.8013 22.0162C10.8484 22.2533 10.9648 22.4711 11.1358 22.642C11.3067 22.813 11.5245 22.9294 11.7616 22.9765C11.9986 23.0237 12.2444 22.9995 12.4677 22.907C12.6911 22.8145 12.8819 22.6578 13.0162 22.4568C13.1505 22.2558 13.2222 22.0195 13.2222 21.7778C13.2222 21.4536 13.0935 21.1427 12.8642 20.9135C12.635 20.6843 12.3242 20.5556 12 20.5556ZM2.22222 1C1.98049 1 1.74419 1.07168 1.54319 1.20598C1.3422 1.34028 1.18554 1.53117 1.09304 1.7545C1.00053 1.97783 0.976325 2.22358 1.02349 2.46067C1.07064 2.69775 1.18705 2.91553 1.35798 3.08646C1.52891 3.2574 1.74669 3.3738 1.98378 3.42096C2.22087 3.46812 2.46662 3.44392 2.68995 3.35141C2.91328 3.2589 3.10416 3.10225 3.23846 2.90125C3.37276 2.70026 3.44444 2.46396 3.44444 2.22222C3.44444 1.89807 3.31568 1.58719 3.08646 1.35798C2.85725 1.12877 2.54638 1 2.22222 1ZM2.22222 10.7778C1.98049 10.7778 1.74419 10.8495 1.54319 10.9838C1.3422 11.1181 1.18554 11.3089 1.09304 11.5323C1.00053 11.7556 0.976325 12.0014 1.02349 12.2384C1.07064 12.4755 1.18705 12.6933 1.35798 12.8642C1.52891 13.0352 1.74669 13.1516 1.98378 13.1987C2.22087 13.2459 2.46662 13.2217 2.68995 13.1292C2.91328 13.0367 3.10416 12.88 3.23846 12.679C3.37276 12.478 3.44444 12.2417 3.44444 12C3.44444 11.6758 3.31568 11.365 3.08646 11.1358C2.85725 10.9065 2.54638 10.7778 2.22222 10.7778ZM21.7778 3.44444C22.0195 3.44444 22.2558 3.37276 22.4568 3.23846C22.6578 3.10416 22.8145 2.91328 22.907 2.68995C22.9995 2.46662 23.0237 2.22087 22.9765 1.98378C22.9294 1.74669 22.813 1.52891 22.642 1.35798C22.4711 1.18705 22.2533 1.07064 22.0162 1.02349C21.7791 0.976325 21.5334 1.00053 21.3101 1.09304C21.0867 1.18554 20.8958 1.3422 20.7615 1.54319C20.6272 1.74419 20.5556 1.98049 20.5556 2.22222C20.5556 2.54638 20.6843 2.85725 20.9135 3.08646C21.1427 3.31568 21.4536 3.44444 21.7778 3.44444ZM2.22222 20.5556C1.98049 20.5556 1.74419 20.6272 1.54319 20.7615C1.3422 20.8958 1.18554 21.0867 1.09304 21.3101C1.00053 21.5334 0.976325 21.7791 1.02349 22.0162C1.07064 22.2533 1.18705 22.4711 1.35798 22.642C1.52891 22.813 1.74669 22.9294 1.98378 22.9765C2.22087 23.0237 2.46662 22.9995 2.68995 22.907C2.91328 22.8145 3.10416 22.6578 3.23846 22.4568C3.37276 22.2558 3.44444 22.0195 3.44444 21.7778C3.44444 21.4536 3.31568 21.1427 3.08646 20.9135C2.85725 20.6843 2.54638 20.5556 2.22222 20.5556ZM12 15.6667C11.7583 15.6667 11.522 15.7383 11.321 15.8726C11.12 16.0069 10.9633 16.1978 10.8708 16.4212C10.7783 16.6445 10.7541 16.8902 10.8013 17.1273C10.8484 17.3644 10.9648 17.5822 11.1358 17.7531C11.3067 17.9241 11.5245 18.0405 11.7616 18.0876C11.9986 18.1348 12.2444 18.1106 12.4677 18.0181C12.6911 17.9256 12.8819 17.7689 13.0162 17.5679C13.1505 17.3669 13.2222 17.1306 13.2222 16.8889C13.2222 16.5647 13.0935 16.2539 12.8642 16.0246C12.635 15.7954 12.3242 15.6667 12 15.6667ZM2.22222 15.6667C1.98049 15.6667 1.74419 15.7383 1.54319 15.8726C1.3422 16.0069 1.18554 16.1978 1.09304 16.4212C1.00053 16.6445 0.976325 16.8902 1.02349 17.1273C1.07064 17.3644 1.18705 17.5822 1.35798 17.7531C1.52891 17.9241 1.74669 18.0405 1.98378 18.0876C2.22087 18.1348 2.46662 18.1106 2.68995 18.0181C2.91328 17.9256 3.10416 17.7689 3.23846 17.5679C3.37276 17.3669 3.44444 17.1306 3.44444 16.8889C3.44444 16.5647 3.31568 16.2539 3.08646 16.0246C2.85725 15.7954 2.54638 15.6667 2.22222 15.6667ZM2.22222 5.88889C1.98049 5.88889 1.74419 5.96057 1.54319 6.09487C1.3422 6.22917 1.18554 6.42006 1.09304 6.64339C1.00053 6.86672 0.976325 7.11247 1.02349 7.34956C1.07064 7.58664 1.18705 7.80442 1.35798 7.97535C1.52891 8.14628 1.74669 8.26269 1.98378 8.30985C2.22087 8.35701 2.46662 8.33281 2.68995 8.2403C2.91328 8.14779 3.10416 7.99114 3.23846 7.79014C3.37276 7.58915 3.44444 7.35284 3.44444 7.11111C3.44444 6.78696 3.31568 6.47608 3.08646 6.24687C2.85725 6.01766 2.54638 5.88889 2.22222 5.88889ZM7.11111 1C6.86938 1 6.63307 1.07168 6.43208 1.20598C6.23109 1.34028 6.07443 1.53117 5.98193 1.7545C5.88942 1.97783 5.86521 2.22358 5.91237 2.46067C5.95953 2.69775 6.07594 2.91553 6.24687 3.08646C6.4178 3.2574 6.63558 3.3738 6.87267 3.42096C7.10976 3.46812 7.3555 3.44392 7.57884 3.35141C7.80217 3.2589 7.99305 3.10225 8.12735 2.90125C8.26165 2.70026 8.33333 2.46396 8.33333 2.22222C8.33333 1.89807 8.20456 1.58719 7.97535 1.35798C7.74614 1.12877 7.43527 1 7.11111 1ZM21.7778 15.6667C21.536 15.6667 21.2997 15.7383 21.0987 15.8726C20.8978 16.0069 20.7411 16.1978 20.6486 16.4212C20.5561 16.6445 20.5319 16.8902 20.579 17.1273C20.6262 17.3644 20.7426 17.5822 20.9135 17.7531C21.0845 17.9241 21.3022 18.0405 21.5393 18.0876C21.7764 18.1348 22.0222 18.1106 22.2455 18.0181C22.4688 17.9256 22.6597 17.7689 22.794 17.5679C22.9283 17.3669 23 17.1306 23 16.8889C23 16.5647 22.8712 16.2539 22.642 16.0246C22.4128 15.7954 22.1019 15.6667 21.7778 15.6667ZM21.7778 20.5556C21.536 20.5556 21.2997 20.6272 21.0987 20.7615C20.8978 20.8958 20.7411 21.0867 20.6486 21.3101C20.5561 21.5334 20.5319 21.7791 20.579 22.0162C20.6262 22.2533 20.7426 22.4711 20.9135 22.642C21.0845 22.813 21.3022 22.9294 21.5393 22.9765C21.7764 23.0237 22.0222 22.9995 22.2455 22.907C22.4688 22.8145 22.6597 22.6578 22.794 22.4568C22.9283 22.2558 23 22.0195 23 21.7778C23 21.4536 22.8712 21.1427 22.642 20.9135C22.4128 20.6843 22.1019 20.5556 21.7778 20.5556ZM21.7778 5.88889C21.536 5.88889 21.2997 5.96057 21.0987 6.09487C20.8978 6.22917 20.7411 6.42006 20.6486 6.64339C20.5561 6.86672 20.5319 7.11247 20.579 7.34956C20.6262 7.58664 20.7426 7.80442 20.9135 7.97535C21.0845 8.14628 21.3022 8.26269 21.5393 8.30985C21.7764 8.35701 22.0222 8.33281 22.2455 8.2403C22.4688 8.14779 22.6597 7.99114 22.794 7.79014C22.9283 7.58915 23 7.35284 23 7.11111C23 6.78696 22.8712 6.47608 22.642 6.24687C22.4128 6.01766 22.1019 5.88889 21.7778 5.88889ZM12 10.7778C11.7583 10.7778 11.522 10.8495 11.321 10.9838C11.12 11.1181 10.9633 11.3089 10.8708 11.5323C10.7783 11.7556 10.7541 12.0014 10.8013 12.2384C10.8484 12.4755 10.9648 12.6933 11.1358 12.8642C11.3067 13.0352 11.5245 13.1516 11.7616 13.1987C11.9986 13.2459 12.2444 13.2217 12.4677 13.1292C12.6911 13.0367 12.8819 12.88 13.0162 12.679C13.1505 12.478 13.2222 12.2417 13.2222 12C13.2222 11.6758 13.0935 11.365 12.8642 11.1358C12.635 10.9065 12.3242 10.7778 12 10.7778ZM21.7778 10.7778C21.536 10.7778 21.2997 10.8495 21.0987 10.9838C20.8978 11.1181 20.7411 11.3089 20.6486 11.5323C20.5561 11.7556 20.5319 12.0014 20.579 12.2384C20.6262 12.4755 20.7426 12.6933 20.9135 12.8642C21.0845 13.0352 21.3022 13.1516 21.5393 13.1987C21.7764 13.2459 22.0222 13.2217 22.2455 13.1292C22.4688 13.0367 22.6597 12.88 22.794 12.679C22.9283 12.478 23 12.2417 23 12C23 11.6758 22.8712 11.365 22.642 11.1358C22.4128 10.9065 22.1019 10.7778 21.7778 10.7778ZM16.8889 1C16.6472 1 16.4109 1.07168 16.2099 1.20598C16.0089 1.34028 15.8522 1.53117 15.7597 1.7545C15.6672 1.97783 15.643 2.22358 15.6902 2.46067C15.7373 2.69775 15.8537 2.91553 16.0246 3.08646C16.1956 3.2574 16.4134 3.3738 16.6504 3.42096C16.8875 3.46812 17.1333 3.44392 17.3566 3.35141C17.5799 3.2589 17.7708 3.10225 17.9051 2.90125C18.0394 2.70026 18.1111 2.46396 18.1111 2.22222C18.1111 1.89807 17.9823 1.58719 17.7531 1.35798C17.5239 1.12877 17.213 1 16.8889 1ZM12 1C11.7583 1 11.522 1.07168 11.321 1.20598C11.12 1.34028 10.9633 1.53117 10.8708 1.7545C10.7783 1.97783 10.7541 2.22358 10.8013 2.46067C10.8484 2.69775 10.9648 2.91553 11.1358 3.08646C11.3067 3.2574 11.5245 3.3738 11.7616 3.42096C11.9986 3.46812 12.2444 3.44392 12.4677 3.35141C12.6911 3.2589 12.8819 3.10225 13.0162 2.90125C13.1505 2.70026 13.2222 2.46396 13.2222 2.22222C13.2222 1.89807 13.0935 1.58719 12.8642 1.35798C12.635 1.12877 12.3242 1 12 1ZM12 5.88889C11.7583 5.88889 11.522 5.96057 11.321 6.09487C11.12 6.22917 10.9633 6.42006 10.8708 6.64339C10.7783 6.86672 10.7541 7.11247 10.8013 7.34956C10.8484 7.58664 10.9648 7.80442 11.1358 7.97535C11.3067 8.14628 11.5245 8.26269 11.7616 8.30985C11.9986 8.35701 12.2444 8.33281 12.4677 8.2403C12.6911 8.14779 12.8819 7.99114 13.0162 7.79014C13.1505 7.58915 13.2222 7.35284 13.2222 7.11111C13.2222 6.78696 13.0935 6.47608 12.8642 6.24687C12.635 6.01766 12.3242 5.88889 12 5.88889ZM16.8889 20.5556C16.6472 20.5556 16.4109 20.6272 16.2099 20.7615C16.0089 20.8958 15.8522 21.0867 15.7597 21.3101C15.6672 21.5334 15.643 21.7791 15.6902 22.0162C15.7373 22.2533 15.8537 22.4711 16.0246 22.642C16.1956 22.813 16.4134 22.9294 16.6504 22.9765C16.8875 23.0237 17.1333 22.9995 17.3566 22.907C17.5799 22.8145 17.7708 22.6578 17.9051 22.4568C18.0394 22.2558 18.1111 22.0195 18.1111 21.7778C18.1111 21.4536 17.9823 21.1427 17.7531 20.9135C17.5239 20.6843 17.213 20.5556 16.8889 20.5556ZM16.8889 10.7778C16.6472 10.7778 16.4109 10.8495 16.2099 10.9838C16.0089 11.1181 15.8522 11.3089 15.7597 11.5323C15.6672 11.7556 15.643 12.0014 15.6902 12.2384C15.7373 12.4755 15.8537 12.6933 16.0246 12.8642C16.1956 13.0352 16.4134 13.1516 16.6504 13.1987C16.8875 13.2459 17.1333 13.2217 17.3566 13.1292C17.5799 13.0367 17.7708 12.88 17.9051 12.679C18.0394 12.478 18.1111 12.2417 18.1111 12C18.1111 11.6758 17.9823 11.365 17.7531 11.1358C17.5239 10.9065 17.213 10.7778 16.8889 10.7778Z" fill="black"/>
</svg>
