<svg width="16" height="16" viewBox="0 0 16 16" fill="none" xmlns="http://www.w3.org/2000/svg">
<path fill-rule="evenodd" clip-rule="evenodd" d="M15.3334 7.99984C15.3334 12.0499 12.0502 15.3332 8.00008 15.3332C3.94999 15.3332 0.666748 12.0499 0.666748 7.99984C0.666748 3.94975 3.94999 0.666504 8.00008 0.666504C12.0502 0.666504 15.3334 3.94975 15.3334 7.99984ZM11.9611 5.00477C12.0525 4.73047 11.9811 4.42805 11.7766 4.2236C11.5722 4.01915 11.2698 3.94776 10.9955 4.03919L6.14054 5.65751C5.9126 5.73349 5.73373 5.91235 5.65775 6.14029L4.03944 10.9952C3.948 11.2695 4.0194 11.5719 4.22385 11.7764C4.4283 11.9808 4.73071 12.0522 5.00501 11.9608L9.85995 10.3425C10.0879 10.2665 10.2668 10.0876 10.3427 9.85971L11.9611 5.00477Z" fill="#525F7F"/>
<circle cx="8.00008" cy="7.99984" r="1.33333" fill="#525F7F"/>
</svg>
