<svg width="18" height="18" viewBox="0 0 18 18" fill="none" xmlns="http://www.w3.org/2000/svg">
<path fill-rule="evenodd" clip-rule="evenodd" d="M8.10029 9.90002V18H2.70029C2.20324 18 1.80029 17.5971 1.80029 17.1V9.90002H8.10029ZM16.2003 9.90002V17.1C16.2003 17.5971 15.7973 18 15.3003 18H9.90029V9.90002H16.2003Z" fill="#7B8EAA"/>
<path d="M5.52828 5.4C3.97945 5.4 2.69971 4.20558 2.69971 2.7C2.69971 1.19442 3.97945 0 5.52828 0C7.04548 0 8.19385 0.833843 9.00081 2.15786L8.94754 2.24308C9.75684 0.869719 10.9216 0 12.4711 0C14.02 0 15.2997 1.19442 15.2997 2.7C15.2997 4.20558 14.02 5.4 12.4711 5.4H8.99971H5.52828ZM5.52828 1.8C4.94687 1.8 4.49971 2.21735 4.49971 2.7C4.49971 3.18265 4.94687 3.6 5.52828 3.6H7.73375C7.66286 3.4483 7.58532 3.29983 7.50111 3.15692C6.98452 2.28028 6.34128 1.8 5.52828 1.8ZM12.4711 1.8C11.6581 1.8 11.0149 2.28028 10.4983 3.15692C10.4141 3.29983 10.3366 3.4483 10.2657 3.6H12.4711C13.0525 3.6 13.4997 3.18265 13.4997 2.7C13.4997 2.21735 13.0525 1.8 12.4711 1.8Z" fill="#AAB7C4"/>
<path d="M17.1 5.40002H0.9C0.402944 5.40002 0 5.80297 0 6.30002V8.10002C0 8.59708 0.402944 9.00002 0.9 9.00002H17.1C17.5971 9.00002 18 8.59708 18 8.10002V6.30002C18 5.80297 17.5971 5.40002 17.1 5.40002Z" fill="#7B8EAA"/>
</svg>
