<svg xmlns="http://www.w3.org/2000/svg" width="12" height="12" viewBox="0 0 12 12">
  <path fill="#32325D" d="M15,6 C18.3137085,6 21,8.6862915 21,12 C21,15.3137085 18.3137085,18 15,18 C11.6862915,18 9,15.3137085 9,12 C9,8.6862915 11.6862915,6 15,6 Z M15.015,6.74999194 C13.1720314,6.74678699 11.4607508,7.70476301 10.5,9.2775 L11.175,9.0375 C11.235,9.015 11.295,9.0375 11.325,9.09 L11.4525,9.2775 C11.476625,9.3090223 11.5140552,9.32751008 11.55375,9.32751008 C11.5934448,9.32751008 11.630875,9.3090223 11.655,9.2775 L12.18,8.6625 L12.2775,8.475 C12.294844,8.41922797 12.2695138,8.35906871 12.2175,8.3325 L12.105,8.2575 C12.0766718,8.23625388 12.06,8.2029102 12.06,8.1675 C12.06,8.1320898 12.0766718,8.09874612 12.105,8.0775 L12.6975,7.7025 L12.9,7.8075 L12.645,8.1825 L13.5,7.8525 C13.5375,7.8325 13.5825,7.8325 13.62,7.8525 L13.875,8.0325 L12.9,8.4375 C12.8737155,8.45153201 12.8546302,8.47607026 12.8475,8.505 L12.6825,8.745 C12.6386895,8.79127564 12.6386895,8.86372436 12.6825,8.91 C12.7275,8.955 12.8025,8.9625 12.8475,8.91 L13.215,8.7825 L13.2675,8.7825 L13.6875,8.8275 C13.71,8.8425 13.7475,8.8425 13.77,8.8275 L14.49,8.295 C14.5129635,8.27371071 14.5260147,8.2438138 14.5260147,8.2125 C14.5260147,8.1811862 14.5129635,8.15128929 14.49,8.13 L14.0925,7.515 C14.0612439,7.4726418 14.0612439,7.4148582 14.0925,7.3725 C14.1227922,7.32955811 14.1775011,7.31132182 14.2275,7.3275 L15.33,7.1475 L15.405,7.1475 L16.155,7.5225 C16.185,7.5375 16.2075,7.5525 16.23,7.5825 L16.305,7.785 C16.3140357,7.81687228 16.3094933,7.85106204 16.2924489,7.87946935 C16.2754045,7.90787666 16.2473747,7.92797397 16.215,7.935 L15.69,8.0175 L16.065,8.265 C16.1175,8.295 16.125,8.37 16.095,8.415 L15.6975,8.9775 C15.6689445,9.0184537 15.6191133,9.03897245 15.57,9.03 L15.015,8.9475 C14.9836348,8.9353541 14.9488652,8.9353541 14.9175,8.9475 L14.1975,9.4725 C14.1550831,9.50327356 14.1395318,9.55925837 14.16,9.6075 L14.2725,9.8775 C14.295,9.93 14.2725,9.9825 14.2275,10.0125 L14.085,10.14 C14.0544932,10.1583824 14.017688,10.1631664 13.9834956,10.1531936 C13.9493032,10.1432208 13.9208409,10.1194005 13.905,10.0875 L13.7925,9.8325 C13.7758248,9.79722782 13.7439179,9.77153193 13.7059018,9.76275898 C13.6678857,9.75398603 13.6279453,9.76310179 13.5975,9.7875 L13.2525,10.065 C13.2207341,10.0901574 13.2038099,10.1296472 13.2075,10.17 L13.2825,10.665 C13.286716,10.6980648 13.2769893,10.7313935 13.2556503,10.7570003 C13.2343114,10.782607 13.2032831,10.7981844 13.17,10.8 L12.975,10.8 C12.9182556,10.7918035 12.8630189,10.8224906 12.84,10.875 L12.69,11.595 C12.69,11.625 12.6675,11.67 12.6375,11.685 L11.85,12.3 C11.8248059,12.3172654 11.8083781,12.3446451 11.805,12.375 L11.595,13.155 C11.5814911,13.1834792 11.5814911,13.2165208 11.595,13.245 L12.2175,13.995 C12.24,14.025 12.27,14.04 12.3,14.04 L13.5375,14.22 C13.5825,14.22 13.62,14.2575 13.6425,14.295 L14.0775,15.2925 C14.0925,15.3225 14.0925,15.36 14.0775,15.3825 L13.9425,15.72 C13.9210641,15.7571281 13.9210641,15.8028719 13.9425,15.84 L14.565,16.4625 C14.595,16.4925 14.64,16.5075 14.6925,16.5 L15.93,16.2 C15.984384,16.1859881 16.0217761,16.136132 16.02,16.08 L16.02,15.84 C16.02,15.8025 16.05,15.765 16.0875,15.7425 L16.455,15.555 C16.4924634,15.5333728 16.5153872,15.4932561 16.515,15.45 L16.515,14.76 L17.2125,13.8525 C17.2498473,13.8104376 17.2529652,13.748078 17.22,13.7025 C17.1877267,13.6622995 17.1333834,13.6472041 17.085,13.665 L16.77,13.74 C16.7215487,13.7555613 16.668484,13.7408211 16.635,13.7025 L15.705,12.5625 L15.885,12.4575 C15.9312244,12.4211974 15.9962756,12.4211974 16.0425,12.4575 L16.815,13.23 C16.86,13.275 16.935,13.275 16.9875,13.23 L17.46,12.825 C17.4858301,12.80222 17.5006275,12.7694401 17.5006275,12.735 C17.5006275,12.7005599 17.4858301,12.66778 17.46,12.645 L16.92,12.2025 L16.98,12.03 L17.6025,12.24 L17.6775,12.24 L18.1575,12.09 C18.1888652,12.0778541 18.2236348,12.0778541 18.255,12.09 L18.63,12.285 C18.66,12.3 18.6825,12.3225 18.69,12.3525 L18.915,12.9675 C18.9375,13.0275 19.005,13.0575 19.065,13.0425 L19.2525,12.9975 C19.3133913,12.9793348 19.3495661,12.9168511 19.335,12.855 L19.1775,12.2925 L19.1775,12.225 L19.3725,11.5275 C19.4027768,11.466786 19.4752964,11.4404153 19.5375,11.4675 L19.725,11.5275 C19.905,11.6175 20.0775,11.7075 20.25,11.8125 C20.1454079,8.99398637 17.8354354,6.76013043 15.015,6.74999194 Z M14.61,10.77 C14.6475,10.7775 14.685,10.8075 14.7,10.845 L15.0525,11.46 C15.0760314,11.496686 15.1143557,11.521323 15.1575,11.5275 L15.8625,11.5875 C15.9375,11.5875 15.99,11.655 15.99,11.7225 L16.02,11.9775 C16.0162357,12.0133963 15.998254,12.0462904 15.9700701,12.0688376 C15.9418861,12.0913847 15.905847,12.1017072 15.87,12.0975 L14.97,12.0225 C14.9325,12.015 14.895,12.03 14.8725,12.06 L14.7675,12.195 C14.7333657,12.2325315 14.6793173,12.2445423 14.6325,12.225 L13.8375,12.1875 C13.7943797,12.1837619 13.7556662,12.1595754 13.7333978,12.1224613 C13.7111293,12.0853473 13.7080064,12.0398064 13.725,12 L13.875,11.685 C13.8923258,11.6440192 13.8883468,11.5971329 13.8643627,11.5596578 C13.8403787,11.5221828 13.7994698,11.4989316 13.755,11.4975 L13.4175,11.4975 C13.3706671,11.5224775 13.3132591,11.5158289 13.2733749,11.4808082 C13.2334906,11.4457875 13.2194741,11.3897213 13.2381857,11.3400517 C13.2568974,11.290382 13.3044227,11.2575 13.3575,11.2575 L13.905,10.92 C13.9616232,10.8842661 14.0350724,10.8903868 14.085,10.935 L14.3625,11.31 C14.3775,11.34 14.3775,11.3775 14.3625,11.4075 L14.3325,11.685 L14.5575,11.685 C14.595,11.685 14.6325,11.655 14.655,11.6175 C14.675,11.58 14.675,11.535 14.655,11.4975 L14.3025,10.77 L14.6175,10.77 L14.61,10.77 Z M15.87,10.71 L16.17,10.86 C16.2286975,10.8810514 16.2635561,10.9414704 16.2524011,11.0028229 C16.2412461,11.0641754 16.187351,11.1084575 16.125,11.1075 L15.765,11.1525 C15.7188643,11.1632338 15.670478,11.1490026 15.6375,11.115 C15.6061713,11.0805228 15.5948317,11.0323294 15.6075,10.9875 L15.6675,10.7925 C15.680354,10.7522905 15.7103743,10.7198497 15.7494684,10.7039225 C15.7885625,10.6879952 15.8327063,10.6902211 15.87,10.71 L15.87,10.71 Z" transform="translate(-9 -6)"/>
</svg>
