<svg width="18" height="18" viewBox="0 0 18 18" fill="none" xmlns="http://www.w3.org/2000/svg">
<path fill-rule="evenodd" clip-rule="evenodd" d="M0 9C0 4.02944 4.02944 0 9 0C13.9706 0 18 4.02944 18 9C18 13.9706 13.9706 18 9 18C4.02944 18 0 13.9706 0 9ZM9.29079 5.02749C8.16472 4.86398 7.21342 5.43248 6.92344 6.1303C6.71151 6.64031 6.12626 6.88194 5.61626 6.67001C5.10626 6.45807 4.86463 5.87283 5.07656 5.36283C5.78576 3.65618 7.73658 2.78084 9.57818 3.04824C11.4266 3.31665 13.0029 4.72855 13 6.61878C12.9995 7.90244 12.0388 8.74993 11.3334 9.21409C10.8577 9.52709 10.3548 9.76154 9.95871 9.92151C9.95569 9.94646 9.95252 9.97212 9.9491 9.99876L9.94829 10.0052C9.94387 10.0411 9.9282 10.1681 9.89648 10.2747C9.8895 10.2982 9.87646 10.3394 9.85555 10.3884C9.8407 10.4231 9.79272 10.5334 9.69418 10.6487C9.61378 10.7428 9.28947 11.0758 8.76327 10.9856C8.30506 10.9071 8.10264 10.5639 8.0673 10.5035C7.96906 10.3357 7.94432 10.1736 7.94316 10.166L7.94311 10.1657C7.9348 10.12 7.93062 10.0806 7.92845 10.0577C7.91529 9.91905 7.91252 9.64339 7.91252 9.23142C7.91252 8.75143 8.25068 8.35043 8.70176 8.25367C8.72359 8.24471 8.7463 8.2363 8.76988 8.22854C9.06249 8.13227 9.69446 7.89838 10.234 7.54336C10.8256 7.15409 11 6.82793 11 6.61778L11 6.61602C11.0012 5.95773 10.4097 5.18996 9.29079 5.02749ZM13 6.61878V6.61778H12L13 6.61953L13 6.61878ZM7.95945 9.7873C7.9582 9.79514 7.95823 9.79357 7.95977 9.78524L7.95945 9.7873ZM10.0325 13.875C9.80919 14.2618 9.39653 14.5 8.94995 14.5C8.25959 14.5 7.69995 13.9404 7.69995 13.25C7.69995 12.5596 8.25959 12 8.94995 12C9.39653 12 9.80919 12.2382 10.0325 12.625C10.2558 13.0118 10.2558 13.4882 10.0325 13.875Z" fill="currentColor"/>
</svg>
