<svg width="16" height="16" viewBox="0 0 16 16" fill="none" xmlns="http://www.w3.org/2000/svg">
<g clip-path="url(#clip0)">
<path fill-rule="evenodd" clip-rule="evenodd" d="M2 6.00016L8 1.3335L14 6.00016V13.3335C14 13.6871 13.8595 14.0263 13.6095 14.2763C13.3594 14.5264 13.0203 14.6668 12.6667 14.6668H11V11C11 9.89543 10.1046 9 9 9H7C5.89543 9 5 9.89543 5 11V14.6668H3.33333C2.97971 14.6668 2.64057 14.5264 2.39052 14.2763C2.14048 14.0263 2 13.6871 2 13.3335V6.00016Z" fill="#525F7F"/>
<path d="M8 1.3335L8.40929 0.807261C8.16855 0.620019 7.83145 0.620019 7.59071 0.807261L8 1.3335ZM2 6.00016L1.59071 5.47393C1.42832 5.60023 1.33333 5.79444 1.33333 6.00016H2ZM14 6.00016H14.6667C14.6667 5.79444 14.5717 5.60023 14.4093 5.47393L14 6.00016ZM13.6095 14.2763L14.0809 14.7477L14.0809 14.7477L13.6095 14.2763ZM11 14.6668H10.3333C10.3333 15.035 10.6318 15.3335 11 15.3335V14.6668ZM5 14.6668V15.3335C5.36819 15.3335 5.66667 15.035 5.66667 14.6668H5ZM2.39052 14.2763L2.86193 13.8049H2.86193L2.39052 14.2763ZM7.59071 0.807261L1.59071 5.47393L2.40929 6.5264L8.40929 1.85973L7.59071 0.807261ZM14.4093 5.47393L8.40929 0.807261L7.59071 1.85973L13.5907 6.5264L14.4093 5.47393ZM14.6667 13.3335V6.00016H13.3333V13.3335H14.6667ZM14.0809 14.7477C14.456 14.3726 14.6667 13.8639 14.6667 13.3335H13.3333C13.3333 13.5103 13.2631 13.6799 13.1381 13.8049L14.0809 14.7477ZM12.6667 15.3335C13.1971 15.3335 13.7058 15.1228 14.0809 14.7477L13.1381 13.8049C13.013 13.9299 12.8435 14.0002 12.6667 14.0002V15.3335ZM11 15.3335H12.6667V14.0002H11V15.3335ZM11.6667 14.6668V11H10.3333V14.6668H11.6667ZM11.6667 11C11.6667 9.52724 10.4728 8.33333 9 8.33333V9.66667C9.73638 9.66667 10.3333 10.2636 10.3333 11H11.6667ZM9 8.33333H7V9.66667H9V8.33333ZM7 8.33333C5.52724 8.33333 4.33333 9.52724 4.33333 11H5.66667C5.66667 10.2636 6.26362 9.66667 7 9.66667V8.33333ZM4.33333 11V14.6668H5.66667V11H4.33333ZM3.33333 15.3335H5V14.0002H3.33333V15.3335ZM1.91912 14.7477C2.29419 15.1228 2.8029 15.3335 3.33333 15.3335V14.0002C3.15652 14.0002 2.98695 13.9299 2.86193 13.8049L1.91912 14.7477ZM1.33333 13.3335C1.33333 13.8639 1.54405 14.3726 1.91912 14.7477L2.86193 13.8049C2.7369 13.6799 2.66667 13.5103 2.66667 13.3335H1.33333ZM1.33333 6.00016V13.3335H2.66667V6.00016H1.33333Z" fill="#525F7F"/>
</g>
<defs>
<clipPath id="clip0">
<rect width="16" height="16" fill="white"/>
</clipPath>
</defs>
</svg>
