<svg width="16" height="16" viewBox="0 0 16 16" fill="none" xmlns="http://www.w3.org/2000/svg">
<g clip-path="url(#clip0)">
<path d="M9.29407 10.1017C9.29407 11.3124 9.78875 12.4735 10.6693 13.3295C11.5498 14.1856 12.7441 14.6666 13.9893 14.6666V5.5708L9.29407 8.69747V10.1017Z" fill="#2684FF"/>
<path d="M13.9891 5.57082V1.34749C13.9889 1.22419 13.9541 1.10328 13.8885 0.997744C13.823 0.892206 13.729 0.806025 13.6169 0.748455C13.5048 0.690886 13.3786 0.664101 13.252 0.670979C13.1253 0.677856 13.003 0.718135 12.8982 0.787491L2 8.02082C2.70036 9.02142 3.78078 9.71066 5.0037 9.937C6.22662 10.1633 7.49194 9.90823 8.52145 9.22779L13.9891 5.57082Z" fill="#2684FF"/>
</g>
<defs>
<clipPath id="clip0">
<rect width="12" height="14" fill="white" transform="translate(2 0.666504)"/>
</clipPath>
</defs>
</svg>
