<svg width="24" height="24" viewBox="0 0 24 24" fill="none" xmlns="http://www.w3.org/2000/svg">
<path d="M21.9 12.5789C21.6083 12.5789 21.3285 12.6898 21.1222 12.8873C20.9159 13.0847 20.8 13.3524 20.8 13.6316V17.8421C20.8 18.1213 20.6841 18.389 20.4778 18.5864C20.2715 18.7838 19.9917 18.8947 19.7 18.8947H4.3C4.00826 18.8947 3.72847 18.7838 3.52218 18.5864C3.31589 18.389 3.2 18.1213 3.2 17.8421V6.58947L9.668 12.7789C10.2868 13.3703 11.1255 13.7025 12 13.7025C12.8745 13.7025 13.7132 13.3703 14.332 12.7789L18.281 9.01053C18.4881 8.81231 18.6045 8.54348 18.6045 8.26316C18.6045 7.98284 18.4881 7.714 18.281 7.51579C18.0739 7.31758 17.7929 7.20622 17.5 7.20622C17.2071 7.20622 16.9261 7.31758 16.719 7.51579L12.781 11.2947C12.6787 11.3934 12.5571 11.4717 12.423 11.5251C12.289 11.5786 12.1452 11.6061 12 11.6061C11.8548 11.6061 11.711 11.5786 11.577 11.5251C11.4429 11.4717 11.3213 11.3934 11.219 11.2947L4.751 5.10526H17.5C17.7917 5.10526 18.0715 4.99436 18.2778 4.79695C18.4841 4.59955 18.6 4.33181 18.6 4.05263C18.6 3.77346 18.4841 3.50572 18.2778 3.30831C18.0715 3.1109 17.7917 3 17.5 3H4.3C3.42479 3 2.58542 3.33271 1.96655 3.92493C1.34768 4.51715 1 5.32037 1 6.1579V17.8421C1 18.6796 1.34768 19.4829 1.96655 20.0751C2.58542 20.6673 3.42479 21 4.3 21H19.7C20.5752 21 21.4146 20.6673 22.0335 20.0751C22.6523 19.4829 23 18.6796 23 17.8421V13.6316C23 13.3524 22.8841 13.0847 22.6778 12.8873C22.4715 12.6898 22.1917 12.5789 21.9 12.5789ZM21.9 1C21.6083 1 21.3285 1.1109 21.1222 1.30831C20.9159 1.50572 20.8 1.77346 20.8 2.05263V6.26316C20.8 6.54233 20.9159 6.81007 21.1222 7.00748C21.3285 7.20489 21.6083 7.31579 21.9 7.31579C22.1917 7.31579 22.4715 7.20489 22.6778 7.00748C22.8841 6.81007 23 6.54233 23 6.26316V2.05263C23 1.77346 22.8841 1.50572 22.6778 1.30831C22.4715 1.1109 22.1917 1 21.9 1ZM21.68 8.36842C21.6111 8.37994 21.5444 8.40123 21.482 8.43158C21.4119 8.45462 21.3453 8.48648 21.284 8.52632L21.119 8.65263C20.918 8.85435 20.8041 9.1213 20.8 9.4C20.7946 9.46657 20.7946 9.53343 20.8 9.6C20.8102 9.66972 20.8325 9.73732 20.866 9.8C20.8901 9.86708 20.9234 9.9308 20.965 9.98947C21.0056 10.0446 21.0497 10.0973 21.097 10.1474C21.1993 10.246 21.3209 10.3243 21.455 10.3778C21.589 10.4312 21.7328 10.4587 21.878 10.4587C22.0232 10.4587 22.167 10.4312 22.301 10.3778C22.4351 10.3243 22.5567 10.246 22.659 10.1474L22.791 9.98947C22.8326 9.9308 22.8659 9.86708 22.89 9.8C22.9235 9.73732 22.9458 9.66972 22.956 9.6C22.9614 9.53343 22.9614 9.46657 22.956 9.4C22.9593 9.24212 22.9255 9.08555 22.857 8.94188C22.7886 8.79821 22.6872 8.67113 22.5604 8.57003C22.4337 8.46894 22.2848 8.39644 22.1247 8.3579C21.9647 8.31935 21.7977 8.31575 21.636 8.34737L21.68 8.36842Z" fill="#4B5563"/>
</svg>
