<svg width="24" height="24" viewBox="0 0 24 24" fill="none" xmlns="http://www.w3.org/2000/svg">
<path fill-rule="evenodd" clip-rule="evenodd" d="M3 21C2.44772 21 2 20.5523 2 20L2 4C2 3.44771 2.44772 3 3 3C3.55229 3 4 3.44771 4 4L4 20C4 20.5523 3.55228 21 3 21Z" fill="#4B5563"/>
<path fill-rule="evenodd" clip-rule="evenodd" d="M14.7071 17.7071C14.3166 18.0976 13.6834 18.0976 13.2929 17.7071L8.29289 12.7071C7.90237 12.3166 7.90237 11.6834 8.29289 11.2929L13.2929 6.29289C13.6834 5.90237 14.3166 5.90237 14.7071 6.29289C15.0976 6.68342 15.0976 7.31658 14.7071 7.70711L10.4142 12L14.7071 16.2929C15.0976 16.6834 15.0976 17.3166 14.7071 17.7071Z" fill="#4B5563"/>
<path fill-rule="evenodd" clip-rule="evenodd" d="M22 12C22 12.5523 21.5523 13 21 13L9 13C8.44771 13 8 12.5523 8 12C8 11.4477 8.44771 11 9 11L21 11C21.5523 11 22 11.4477 22 12Z" fill="#4B5563"/>
</svg>
