<svg width="20" height="20" viewBox="0 0 20 20" fill="none" xmlns="http://www.w3.org/2000/svg">
<path d="M18.9996 0.000244141H0.999634C0.734417 0.000244141 0.480063 0.105601 0.292527 0.293137C0.104991 0.480674 -0.000366211 0.735028 -0.000366211 1.00024V19.0002C-0.000366211 19.2655 0.104991 19.5198 0.292527 19.7074C0.480063 19.8949 0.734417 20.0002 0.999634 20.0002H18.9996C19.2649 20.0002 19.5192 19.8949 19.7067 19.7074C19.8943 19.5198 19.9996 19.2655 19.9996 19.0002V1.00024C19.9996 0.735028 19.8943 0.480674 19.7067 0.293137C19.5192 0.105601 19.2649 0.000244141 18.9996 0.000244141ZM5.99963 18.0002H1.99963V14.0002H5.99963V18.0002ZM5.99963 12.0002H1.99963V8.00024H5.99963V12.0002ZM5.99963 6.00024H1.99963V2.00024H5.99963V6.00024ZM11.9996 18.0002H7.99963V14.0002H11.9996V18.0002ZM11.9996 12.0002H7.99963V8.00024H11.9996V12.0002ZM11.9996 6.00024H7.99963V2.00024H11.9996V6.00024ZM17.9996 18.0002H13.9996V14.0002H17.9996V18.0002ZM17.9996 12.0002H13.9996V8.00024H17.9996V12.0002ZM17.9996 6.00024H13.9996V2.00024H17.9996V6.00024Z" fill="#4B5563"/>
</svg>
