<svg width="16" height="16" viewBox="0 0 16 16" fill="none" xmlns="http://www.w3.org/2000/svg">
<path d="M2 4H3.33333H14" stroke="#6B7280" stroke-width="1.33333" stroke-linecap="round" stroke-linejoin="round"/>
<path fill-rule="evenodd" clip-rule="evenodd" d="M12.6667 4V13.3333C12.6667 14.0697 12.0697 14.6667 11.3333 14.6667H4.66668C3.9303 14.6667 3.33334 14.0697 3.33334 13.3333V4" fill="#6B7280"/>
<path d="M13.3333 4C13.3333 3.63181 13.0349 3.33333 12.6667 3.33333C12.2985 3.33333 12 3.63181 12 4H13.3333ZM4.00001 4C4.00001 3.63181 3.70153 3.33333 3.33334 3.33333C2.96515 3.33333 2.66668 3.63181 2.66668 4H4.00001ZM12 4V13.3333H13.3333V4H12ZM12 13.3333C12 13.7015 11.7015 14 11.3333 14V15.3333C12.4379 15.3333 13.3333 14.4379 13.3333 13.3333H12ZM11.3333 14H4.66668V15.3333H11.3333V14ZM4.66668 14C4.29849 14 4.00001 13.7015 4.00001 13.3333H2.66668C2.66668 14.4379 3.56211 15.3333 4.66668 15.3333V14ZM4.00001 13.3333V4H2.66668V13.3333H4.00001Z" fill="#6B7280"/>
<path d="M5.33331 3.99996V2.66663C5.33331 1.93025 5.93027 1.3333 6.66665 1.3333H9.33331C10.0697 1.3333 10.6666 1.93025 10.6666 2.66663V3.99996" stroke="#6B7280" stroke-width="1.6"/>
<path d="M6.66666 7.3333V11.3333" stroke="white" stroke-width="1.33333" stroke-linecap="round" stroke-linejoin="round"/>
<path d="M9.33334 7.3333V11.3333" stroke="white" stroke-width="1.33333" stroke-linecap="round" stroke-linejoin="round"/>
</svg>
