<svg width="24" height="24" viewBox="0 0 24 24" fill="none" xmlns="http://www.w3.org/2000/svg">
<path d="M21.9996 15.0002H19.9996V12.0002C19.9996 11.735 19.8943 11.4807 19.7067 11.2931C19.5192 11.1056 19.2649 11.0002 18.9996 11.0002H12.9996V9.00024H14.9996C15.2649 9.00024 15.5192 8.89489 15.7067 8.70735C15.8943 8.51981 15.9996 8.26546 15.9996 8.00024V2.00024C15.9996 1.73503 15.8943 1.48067 15.7067 1.29314C15.5192 1.1056 15.2649 1.00024 14.9996 1.00024H8.99963C8.73442 1.00024 8.48006 1.1056 8.29253 1.29314C8.10499 1.48067 7.99963 1.73503 7.99963 2.00024V8.00024C7.99963 8.26546 8.10499 8.51981 8.29253 8.70735C8.48006 8.89489 8.73442 9.00024 8.99963 9.00024H10.9996V11.0002H4.99963C4.73442 11.0002 4.48006 11.1056 4.29253 11.2931C4.10499 11.4807 3.99963 11.735 3.99963 12.0002V15.0002H1.99963C1.73442 15.0002 1.48006 15.1056 1.29253 15.2931C1.10499 15.4807 0.999634 15.735 0.999634 16.0002V22.0002C0.999634 22.2655 1.10499 22.5198 1.29253 22.7074C1.48006 22.8949 1.73442 23.0002 1.99963 23.0002H7.99963C8.26485 23.0002 8.5192 22.8949 8.70674 22.7074C8.89428 22.5198 8.99963 22.2655 8.99963 22.0002V16.0002C8.99963 15.735 8.89428 15.4807 8.70674 15.2931C8.5192 15.1056 8.26485 15.0002 7.99963 15.0002H5.99963V13.0002H17.9996V15.0002H15.9996C15.7344 15.0002 15.4801 15.1056 15.2925 15.2931C15.105 15.4807 14.9996 15.735 14.9996 16.0002V22.0002C14.9996 22.2655 15.105 22.5198 15.2925 22.7074C15.4801 22.8949 15.7344 23.0002 15.9996 23.0002H21.9996C22.2649 23.0002 22.5192 22.8949 22.7067 22.7074C22.8943 22.5198 22.9996 22.2655 22.9996 22.0002V16.0002C22.9996 15.735 22.8943 15.4807 22.7067 15.2931C22.5192 15.1056 22.2649 15.0002 21.9996 15.0002ZM6.99963 17.0002V21.0002H2.99963V17.0002H6.99963ZM9.99963 7.00024V3.00024H13.9996V7.00024H9.99963ZM20.9996 21.0002H16.9996V17.0002H20.9996V21.0002Z" fill="#4B5563"/>
</svg>
