<svg width="16" height="16" viewBox="0 0 16 16" fill="none" xmlns="http://www.w3.org/2000/svg">
<path d="M14.2222 8.00001C14.2222 8.24547 14.0232 8.44446 13.7778 8.44446L2.22222 8.44446C1.97676 8.44446 1.77778 8.24547 1.77778 8.00001V8.00001C1.77778 7.75455 1.97676 7.55557 2.22222 7.55557L13.7778 7.55557C14.0232 7.55557 14.2222 7.75455 14.2222 8.00001V8.00001Z" fill="#444444"/>
<path d="M11.1111 12.4445C11.1111 12.9354 10.7131 13.3334 10.2222 13.3334V13.3334C9.7313 13.3334 9.33333 12.9354 9.33333 12.4445L9.33333 3.5556C9.33333 3.06468 9.7313 2.66671 10.2222 2.66671V2.66671C10.7131 2.66671 11.1111 3.06468 11.1111 3.5556L11.1111 12.4445Z" fill="#444444"/>
<path d="M6.66667 10.6667C6.66667 11.1576 6.2687 11.5555 5.77778 11.5555V11.5555C5.28686 11.5555 4.88889 11.1576 4.88889 10.6667L4.88889 5.33332C4.88889 4.8424 5.28686 4.44443 5.77778 4.44443V4.44443C6.2687 4.44443 6.66667 4.8424 6.66667 5.33332L6.66667 10.6667Z" fill="#444444"/>
</svg>
