<svg width="16" height="16" viewBox="0 0 16 16" fill="none" xmlns="http://www.w3.org/2000/svg">
<path d="M14.2222 14.2222C14.2222 14.4676 14.0232 14.6666 13.7778 14.6666L2.22222 14.6666C1.97676 14.6666 1.77778 14.4676 1.77778 14.2222V14.2222C1.77778 13.9767 1.97676 13.7777 2.22222 13.7777L13.7778 13.7777C14.0232 13.7777 14.2222 13.9767 14.2222 14.2222V14.2222Z" fill="#444444"/>
<path d="M11.1111 11.1111C11.1111 11.602 10.7131 12 10.2222 12V12C9.7313 12 9.33333 11.602 9.33333 11.1111L9.33333 2.22222C9.33333 1.7313 9.7313 1.33333 10.2222 1.33333V1.33333C10.7131 1.33333 11.1111 1.7313 11.1111 2.22222L11.1111 11.1111Z" fill="#444444"/>
<path d="M6.66667 11.1111C6.66667 11.602 6.2687 12 5.77778 12V12C5.28686 12 4.88889 11.602 4.88889 11.1111L4.88889 5.77778C4.88889 5.28686 5.28686 4.88889 5.77778 4.88889V4.88889C6.2687 4.88889 6.66667 5.28686 6.66667 5.77778L6.66667 11.1111Z" fill="#444444"/>
</svg>
