<svg width="16" height="16" viewBox="0 0 16 16" fill="none" xmlns="http://www.w3.org/2000/svg">
<path d="M1.77778 1.77782C1.77778 1.53236 1.97676 1.33337 2.22222 1.33337H13.7778C14.0232 1.33337 14.2222 1.53236 14.2222 1.77782V1.77782C14.2222 2.02328 14.0232 2.22226 13.7778 2.22226H2.22222C1.97676 2.22226 1.77778 2.02328 1.77778 1.77782V1.77782Z" fill="#444444"/>
<path d="M4.88889 4.88889C4.88889 4.39797 5.28685 4 5.77777 4V4C6.26869 4 6.66666 4.39797 6.66666 4.88889V13.7778C6.66666 14.2687 6.26869 14.6667 5.77777 14.6667V14.6667C5.28685 14.6667 4.88889 14.2687 4.88889 13.7778V4.88889Z" fill="#444444"/>
<path d="M9.33333 4.88889C9.33333 4.39797 9.7313 4 10.2222 4V4C10.7131 4 11.1111 4.39797 11.1111 4.88889V10.2222C11.1111 10.7131 10.7131 11.1111 10.2222 11.1111V11.1111C9.7313 11.1111 9.33333 10.7131 9.33333 10.2222V4.88889Z" fill="#444444"/>
</svg>
