<svg width="16" height="16" viewBox="0 0 16 16" fill="none" xmlns="http://www.w3.org/2000/svg">
<path fill-rule="evenodd" clip-rule="evenodd" d="M8.00065 14.6663C11.6825 14.6663 14.6673 11.6816 14.6673 7.99967C14.6673 4.31778 11.6825 1.33301 8.00065 1.33301C4.31875 1.33301 1.33398 4.31778 1.33398 7.99967C1.33398 11.6816 4.31875 14.6663 8.00065 14.6663ZM10.4714 5.5286C10.7318 5.78895 10.7318 6.21105 10.4714 6.4714L8.94281 8L10.4714 9.52859C10.7318 9.78894 10.7318 10.2111 10.4714 10.4714C10.2111 10.7318 9.78894 10.7318 9.52859 10.4714L8 8.94281L6.4714 10.4714C6.21105 10.7318 5.78895 10.7318 5.5286 10.4714C5.26825 10.2111 5.26825 9.78894 5.5286 9.52859L7.05719 8L5.5286 6.4714C5.26825 6.21105 5.26825 5.78895 5.5286 5.5286C5.78895 5.26825 6.21105 5.26825 6.4714 5.5286L8 7.05719L9.52859 5.5286C9.78894 5.26825 10.2111 5.26825 10.4714 5.5286Z" fill="#525F7F"/>
</svg>
